<?xml version="1.0" encoding="UTF-8"?>
<svg version="1.1" xmlns="http://www.w3.org/2000/svg" width="306" height="306">
<path d="M0 0 C0.83963287 0.32342377 1.67926575 0.64684753 2.54434204 0.98007202 C6.28949813 2.08544458 9.39015574 2.27779111 13.29052734 2.31884766 C14.3452272 2.33391609 14.3452272 2.33391609 15.42123413 2.34928894 C17.72612757 2.37997493 20.03090564 2.39711497 22.3359375 2.4140625 C23.94162987 2.43278593 25.54731252 2.45236021 27.15298462 2.4727478 C31.3647487 2.52395101 35.57654464 2.56363969 39.78845215 2.60089111 C44.09212041 2.64100506 48.39565749 2.6920636 52.69921875 2.7421875 C61.1327227 2.83880683 69.56629188 2.92325608 78 3 C78 6.63 78 10.26 78 14 C80.36478516 13.98259766 80.36478516 13.98259766 82.77734375 13.96484375 C84.83072799 13.95546757 86.8841135 13.94636718 88.9375 13.9375 C90.49887695 13.92493164 90.49887695 13.92493164 92.09179688 13.91210938 C93.57583008 13.90727539 93.57583008 13.90727539 95.08984375 13.90234375 C96.00628662 13.89710693 96.92272949 13.89187012 97.86694336 13.88647461 C100 14 100 14 101 15 C101.14115161 17.67058851 101.04247107 20.32432238 101 23 C102.65 23 104.3 23 106 23 C106 20.03 106 17.06 106 14 C109.63 14 113.26 14 117 14 C117 10.37 117 6.74 117 3 C130.2 3 143.4 3 157 3 C157 6.63 157 10.26 157 14 C158.629375 13.979375 160.25875 13.95875 161.9375 13.9375 C163.62499341 13.91613932 165.31391034 13.92794489 167 14 C168 15 168 15 168.09765625 17.50390625 C168.06510417 20.3359375 168.03255208 23.16796875 168 26 C171.63 26 175.26 26 179 26 C179 36.23 179 46.46 179 57 C175.37 57 171.74 57 168 57 C168 60.63 168 64.26 168 68 C164.37 68 160.74 68 157 68 C157 71.63 157 75.26 157 79 C160.63 79 164.26 79 168 79 C168 85.6 168 92.2 168 99 C171.63 99 175.26 99 179 99 C179 123.42 179 147.84 179 173 C175.37 173 171.74 173 168 173 C168 180.26 168 187.52 168 195 C164.37 195 160.74 195 157 195 C157.00785522 196.76428345 157.00785522 196.76428345 157.01586914 198.56420898 C157.03391663 202.91202031 157.04543108 207.2598283 157.05493164 211.60766602 C157.05997244 213.4924373 157.06680498 215.37720465 157.07543945 217.26196289 C157.08751617 219.96501636 157.09323068 222.66801831 157.09765625 225.37109375 C157.10281754 226.21900986 157.10797882 227.06692596 157.11329651 227.9405365 C157.11349195 229.96071068 157.06206211 231.98077934 157 234 C156 235 156 235 153.71484375 235.09765625 C152.34005859 235.08025391 152.34005859 235.08025391 150.9375 235.0625 C150.01839844 235.05347656 149.09929687 235.04445312 148.15234375 235.03515625 C147.44207031 235.02355469 146.73179687 235.01195312 146 235 C146.01160156 235.71027344 146.02320313 236.42054688 146.03515625 237.15234375 C146.04869141 238.53099609 146.04869141 238.53099609 146.0625 239.9375 C146.07410156 240.85402344 146.08570313 241.77054688 146.09765625 242.71484375 C146 245 146 245 145 246 C143.36527118 246.08700342 141.72685945 246.10701063 140.08984375 246.09765625 C139.10048828 246.09443359 138.11113281 246.09121094 137.09179688 246.08789062 C136.05087891 246.07951172 135.00996094 246.07113281 133.9375 246.0625 C132.89271484 246.05798828 131.84792969 246.05347656 130.77148438 246.04882812 C128.18096546 246.03699927 125.59047578 246.01906319 123 246 C123 249.63 123 253.26 123 257 C115.74 257 108.48 257 101 257 C101 260.63 101 264.26 101 268 C88.30541594 268.15600521 75.61076424 268.30411236 62.91598034 268.4429636 C57.01709744 268.50771412 51.11826562 268.57488043 45.21948242 268.64819336 C18.11858876 268.98319762 -8.9155639 269.12894706 -36 268 C-36 264.37 -36 260.74 -36 257 C-43.26 257 -50.52 257 -58 257 C-58 253.37 -58 249.74 -58 246 C-60.36478516 246.01740234 -60.36478516 246.01740234 -62.77734375 246.03515625 C-64.83072799 246.04453243 -66.8841135 246.05363282 -68.9375 246.0625 C-69.97841797 246.07087891 -71.01933594 246.07925781 -72.09179688 246.08789062 C-73.08115234 246.09111328 -74.07050781 246.09433594 -75.08984375 246.09765625 C-76.00628662 246.10289307 -76.92272949 246.10812988 -77.86694336 246.11352539 C-80 246 -80 246 -81 245 C-81.07205511 243.31391034 -81.08386068 241.62499341 -81.0625 239.9375 C-81.05347656 239.01839844 -81.04445312 238.09929687 -81.03515625 237.15234375 C-81.02355469 236.44207031 -81.01195312 235.73179687 -81 235 C-81.71027344 235.01160156 -82.42054687 235.02320313 -83.15234375 235.03515625 C-84.07144531 235.04417969 -84.99054688 235.05320313 -85.9375 235.0625 C-86.85402344 235.07410156 -87.77054688 235.08570313 -88.71484375 235.09765625 C-91 235 -91 235 -92 234 C-92.08865208 231.1156618 -92.11521296 228.25537842 -92.09765625 225.37109375 C-92.0962413 224.50686295 -92.09482635 223.64263214 -92.09336853 222.75221252 C-92.08775239 219.98060708 -92.07519719 217.2090812 -92.0625 214.4375 C-92.05748708 212.5631522 -92.05292381 210.68880315 -92.04882812 208.81445312 C-92.03777772 204.20960456 -92.0205023 199.60481579 -92 195 C-95.63 195 -99.26 195 -103 195 C-103 187.74 -103 180.48 -103 173 C-106.63 173 -110.26 173 -114 173 C-114 148.58 -114 124.16 -114 99 C-110.37 99 -106.74 99 -103 99 C-103 92.4 -103 85.8 -103 79 C-99.37 79 -95.74 79 -92 79 C-92 75.37 -92 71.74 -92 68 C-95.63 68 -99.26 68 -103 68 C-103 64.37 -103 60.74 -103 57 C-106.63 57 -110.26 57 -114 57 C-114 46.77 -114 36.54 -114 26 C-110.37 26 -106.74 26 -103 26 C-103 22.04 -103 18.08 -103 14 C-99.37 14 -95.74 14 -92 14 C-92 10.37 -92 6.74 -92 3 C-78.8 3 -65.6 3 -52 3 C-52 6.63 -52 10.26 -52 14 C-48.37 14 -44.74 14 -41 14 C-41 16.97 -41 19.94 -41 23 C-39.35 23 -37.7 23 -36 23 C-36.020625 21.700625 -36.04125 20.40125 -36.0625 19.0625 C-36.08399454 17.70834367 -36.07148199 16.35243917 -36 15 C-35 14 -35 14 -32.86694336 13.88647461 C-31.95050049 13.89171143 -31.03405762 13.89694824 -30.08984375 13.90234375 C-29.10048828 13.90556641 -28.11113281 13.90878906 -27.09179688 13.91210938 C-26.05087891 13.92048828 -25.00996094 13.92886719 -23.9375 13.9375 C-22.37032227 13.94426758 -22.37032227 13.94426758 -20.77148438 13.95117188 C-18.18096546 13.96300073 -15.59047578 13.98093681 -13 14 C-13 10.37 -13 6.74 -13 3 C-9.04 3 -5.08 3 -1 3 C-0.67 2.01 -0.34 1.02 0 0 Z " fill="#8F6D4E" transform="translate(120,17)"/>
<path d="M0 0 C12.87 0 25.74 0 39 0 C39 2.64 39 5.28 39 8 C42.96 8 46.92 8 51 8 C51 9.98 51 11.96 51 14 C52.65 14 54.3 14 56 14 C56 23.24 56 32.48 56 42 C54.35 42 52.7 42 51 42 C51 44.64 51 47.28 51 50 C47.37 50 43.74 50 40 50 C40 53.63 40 57.26 40 61 C28.45 61 16.9 61 5 61 C5 63.97 5 66.94 5 70 C1.37 70 -2.26 70 -6 70 C-6 71.98 -6 73.96 -6 76 C-7.65 76 -9.3 76 -11 76 C-11 77.98 -11 79.96 -11 82 C-12.98 82 -14.96 82 -17 82 C-17 85.63 -17 89.26 -17 93 C-15.02 93 -13.04 93 -11 93 C-11 96.63 -11 100.26 -11 104 C-7.37 104 -3.74 104 0 104 C0 107.63 0 111.26 0 115 C5.28 115 10.56 115 16 115 C16 116.98 16 118.96 16 121 C23.92 121 31.84 121 40 121 C40 124.63 40 128.26 40 132 C69.7 132 99.4 132 130 132 C130 128.37 130 124.74 130 121 C137.26 121 144.52 121 152 121 C152 119.02 152 117.04 152 115 C157.61 115 163.22 115 169 115 C169 111.37 169 107.74 169 104 C172.63 104 176.26 104 180 104 C180 100.37 180 96.74 180 93 C181.98 93 183.96 93 186 93 C186 89.37 186 85.74 186 82 C184.02 82 182.04 82 180 82 C180 80.02 180 78.04 180 76 C178.35 76 176.7 76 175 76 C175 74.02 175 72.04 175 70 C171.04 70 167.08 70 163 70 C163 67.36 163 64.72 163 62 C151.78 62 140.56 62 129 62 C129 58.04 129 54.08 129 50 C125.37 50 121.74 50 118 50 C118 47.36 118 44.72 118 42 C116.35 42 114.7 42 113 42 C113 32.76 113 23.52 113 14 C114.65 14 116.3 14 118 14 C118 12.02 118 10.04 118 8 C121.63 8 125.26 8 129 8 C129 5.36 129 2.72 129 0 C142.2 0 155.4 0 169 0 C169 2.64 169 5.28 169 8 C172.63 8 176.26 8 180 8 C180 11.63 180 15.26 180 19 C183.96 19 187.92 19 192 19 C192 22.96 192 26.92 192 31 C193.98 31 195.96 31 198 31 C198 47.5 198 64 198 81 C201.63 81 205.26 81 209 81 C209 77.37 209 73.74 209 70 C212.63 70 216.26 70 220 70 C220 49.54 220 29.08 220 8 C223.63 8 227.26 8 231 8 C231 32.42 231 56.84 231 82 C227.37 82 223.74 82 220 82 C220 89.26 220 96.52 220 104 C216.37 104 212.74 104 209 104 C209.00785522 105.76428345 209.00785522 105.76428345 209.01586914 107.56420898 C209.03391663 111.91202031 209.04543108 116.2598283 209.05493164 120.60766602 C209.05997244 122.4924373 209.06680498 124.37720465 209.07543945 126.26196289 C209.08751617 128.96501636 209.09323068 131.66801831 209.09765625 134.37109375 C209.10281754 135.21900986 209.10797882 136.06692596 209.11329651 136.9405365 C209.11349195 138.96071068 209.06206211 140.98077934 209 143 C208 144 208 144 205.71484375 144.09765625 C204.34005859 144.08025391 204.34005859 144.08025391 202.9375 144.0625 C202.01839844 144.05347656 201.09929687 144.04445312 200.15234375 144.03515625 C199.44207031 144.02355469 198.73179687 144.01195312 198 144 C198.01160156 144.71027344 198.02320313 145.42054688 198.03515625 146.15234375 C198.04869141 147.53099609 198.04869141 147.53099609 198.0625 148.9375 C198.07410156 149.85402344 198.08570313 150.77054688 198.09765625 151.71484375 C198 154 198 154 197 155 C195.36527118 155.08700342 193.72685945 155.10701063 192.08984375 155.09765625 C191.10048828 155.09443359 190.11113281 155.09121094 189.09179688 155.08789062 C188.05087891 155.07951172 187.00996094 155.07113281 185.9375 155.0625 C184.89271484 155.05798828 183.84792969 155.05347656 182.77148438 155.04882812 C180.18096546 155.03699927 177.59047578 155.01906319 175 155 C175 158.63 175 162.26 175 166 C167.74 166 160.48 166 153 166 C153 169.63 153 173.26 153 177 C140.30541594 177.15600521 127.61076424 177.30411236 114.91598034 177.4429636 C109.01709744 177.50771412 103.11826562 177.57488043 97.21948242 177.64819336 C70.11858876 177.98319762 43.0844361 178.12894706 16 177 C16 173.37 16 169.74 16 166 C8.74 166 1.48 166 -6 166 C-6 162.37 -6 158.74 -6 155 C-8.36478516 155.01740234 -8.36478516 155.01740234 -10.77734375 155.03515625 C-12.83072799 155.04453243 -14.8841135 155.05363282 -16.9375 155.0625 C-17.97841797 155.07087891 -19.01933594 155.07925781 -20.09179688 155.08789062 C-21.08115234 155.09111328 -22.07050781 155.09433594 -23.08984375 155.09765625 C-24.00628662 155.10289307 -24.92272949 155.10812988 -25.86694336 155.11352539 C-28 155 -28 155 -29 154 C-29.07205511 152.31391034 -29.08386068 150.62499341 -29.0625 148.9375 C-29.05347656 148.01839844 -29.04445312 147.09929687 -29.03515625 146.15234375 C-29.02355469 145.44207031 -29.01195312 144.73179687 -29 144 C-29.71027344 144.01160156 -30.42054687 144.02320313 -31.15234375 144.03515625 C-32.07144531 144.04417969 -32.99054687 144.05320313 -33.9375 144.0625 C-34.85402344 144.07410156 -35.77054688 144.08570313 -36.71484375 144.09765625 C-39 144 -39 144 -40 143 C-40.08865208 140.1156618 -40.11521296 137.25537842 -40.09765625 134.37109375 C-40.0962413 133.50686295 -40.09482635 132.64263214 -40.09336853 131.75221252 C-40.08775239 128.98060708 -40.07519719 126.2090812 -40.0625 123.4375 C-40.05748708 121.5631522 -40.05292381 119.68880315 -40.04882812 117.81445312 C-40.03777772 113.20960456 -40.0205023 108.60481579 -40 104 C-43.63 104 -47.26 104 -51 104 C-51 96.74 -51 89.48 -51 82 C-54.63 82 -58.26 82 -62 82 C-62 57.58 -62 33.16 -62 8 C-58.37 8 -54.74 8 -51 8 C-51 32.09 -51 56.18 -51 81 C-43.74 81 -36.48 81 -29 81 C-29 64.5 -29 48 -29 31 C-27.02 31 -25.04 31 -23 31 C-23 27.04 -23 23.08 -23 19 C-19.04 19 -15.08 19 -11 19 C-11 15.37 -11 11.74 -11 8 C-7.37 8 -3.74 8 0 8 C0 5.36 0 2.72 0 0 Z " fill="#735439" transform="translate(68,108)"/>
<path d="M0 0 C14.85 0 29.7 0 45 0 C45 3.63 45 7.26 45 11 C48.63 11 52.26 11 56 11 C56 14.63 56 18.26 56 22 C67.22 22 78.44 22 90 22 C90 18.37 90 14.74 90 11 C93.96 11 97.92 11 102 11 C102 7.37 102 3.74 102 0 C116.85 0 131.7 0 147 0 C147 3.63 147 7.26 147 11 C152.61 11 158.22 11 164 11 C164 14.63 164 18.26 164 22 C167.63 22 171.26 22 175 22 C175 28.6 175 35.2 175 42 C178.63 42 182.26 42 186 42 C186 49.59 186 57.18 186 65 C184.35 65 182.7 65 181 65 C181 61.04 181 57.08 181 53 C177.04 53 173.08 53 169 53 C169 49.37 169 45.74 169 42 C165.37 42 161.74 42 158 42 C158 39.36 158 36.72 158 34 C144.8 34 131.6 34 118 34 C118 36.64 118 39.28 118 42 C114.37 42 110.74 42 107 42 C107 43.98 107 45.96 107 48 C105.35 48 103.7 48 102 48 C102 57.24 102 66.48 102 76 C103.65 76 105.3 76 107 76 C107 78.64 107 81.28 107 84 C110.63 84 114.26 84 118 84 C118 87.96 118 91.92 118 96 C129.22 96 140.44 96 152 96 C152 98.64 152 101.28 152 104 C155.96 104 159.92 104 164 104 C164 105.98 164 107.96 164 110 C165.65 110 167.3 110 169 110 C169 111.98 169 113.96 169 116 C170.98 116 172.96 116 175 116 C175 119.63 175 123.26 175 127 C173.02 127 171.04 127 169 127 C169 130.63 169 134.26 169 138 C165.37 138 161.74 138 158 138 C158 141.63 158 145.26 158 149 C152.39 149 146.78 149 141 149 C141 150.98 141 152.96 141 155 C133.74 155 126.48 155 119 155 C119 158.63 119 162.26 119 166 C89.3 166 59.6 166 29 166 C29 162.37 29 158.74 29 155 C21.08 155 13.16 155 5 155 C5 153.02 5 151.04 5 149 C-0.28 149 -5.56 149 -11 149 C-11 145.37 -11 141.74 -11 138 C-14.63 138 -18.26 138 -22 138 C-22 134.37 -22 130.74 -22 127 C-23.98 127 -25.96 127 -28 127 C-28 123.37 -28 119.74 -28 116 C-26.02 116 -24.04 116 -22 116 C-22 114.02 -22 112.04 -22 110 C-20.35 110 -18.7 110 -17 110 C-17 108.02 -17 106.04 -17 104 C-13.37 104 -9.74 104 -6 104 C-6 101.03 -6 98.06 -6 95 C5.55 95 17.1 95 29 95 C29 91.37 29 87.74 29 84 C32.63 84 36.26 84 40 84 C40 81.36 40 78.72 40 76 C41.65 76 43.3 76 45 76 C45 66.76 45 57.52 45 48 C43.35 48 41.7 48 40 48 C40 46.02 40 44.04 40 42 C36.04 42 32.08 42 28 42 C28 39.36 28 36.72 28 34 C15.13 34 2.26 34 -11 34 C-11 36.64 -11 39.28 -11 42 C-14.63 42 -18.26 42 -22 42 C-22 45.63 -22 49.26 -22 53 C-25.96 53 -29.92 53 -34 53 C-34 56.96 -34 60.92 -34 65 C-35.65 65 -37.3 65 -39 65 C-39 57.41 -39 49.82 -39 42 C-35.37 42 -31.74 42 -28 42 C-28 35.4 -28 28.8 -28 22 C-24.37 22 -20.74 22 -17 22 C-17 18.37 -17 14.74 -17 11 C-11.39 11 -5.78 11 0 11 C0 7.37 0 3.74 0 0 Z " fill="#F6E9CF" transform="translate(79,74)"/>
<path d="M0 0 C14.85 0 29.7 0 45 0 C45 3.63 45 7.26 45 11 C48.63 11 52.26 11 56 11 C56 14.63 56 18.26 56 22 C67.22 22 78.44 22 90 22 C90 18.37 90 14.74 90 11 C93.96 11 97.92 11 102 11 C102 7.37 102 3.74 102 0 C116.85 0 131.7 0 147 0 C147 3.63 147 7.26 147 11 C152.61 11 158.22 11 164 11 C164 14.63 164 18.26 164 22 C167.63 22 171.26 22 175 22 C175 28.6 175 35.2 175 42 C178.63 42 182.26 42 186 42 C186 49.59 186 57.18 186 65 C184.35 65 182.7 65 181 65 C181 61.04 181 57.08 181 53 C177.04 53 173.08 53 169 53 C169 49.37 169 45.74 169 42 C165.37 42 161.74 42 158 42 C158 39.36 158 36.72 158 34 C144.8 34 131.6 34 118 34 C118 36.64 118 39.28 118 42 C114.37 42 110.74 42 107 42 C107 43.98 107 45.96 107 48 C105.35 48 103.7 48 102 48 C102 57.24 102 66.48 102 76 C103.65 76 105.3 76 107 76 C107 78.64 107 81.28 107 84 C110.63 84 114.26 84 118 84 C118.16821105 86.5832412 118.33462517 89.16657699 118.5 91.75 C118.57154297 92.84441406 118.57154297 92.84441406 118.64453125 93.9609375 C118.85816897 97.31810164 119 100.63436276 119 104 C115.04 104 111.08 104 107 104 C107 107.63 107 111.26 107 115 C97.76 115 88.52 115 79 115 C79 114.34 79 113.68 79 113 C79.66 113 80.32 113 81 113 C81 112.34 81 111.68 81 111 C81.99 110.67 82.98 110.34 84 110 C84.33 105.38 84.66 100.76 85 96 C88.63 96 92.26 96 96 96 C96 91.05 96 86.1 96 81 C94.35 81 92.7 81 91 81 C91 79.35 91 77.7 91 76 C79.45 76 67.9 76 56 76 C56 77.65 56 79.3 56 81 C54.35 81 52.7 81 51 81 C51 84.96 51 88.92 51 93 C50.67 93 50.34 93 50 93 C49.505 85.575 49.505 85.575 49 78 C47.35 78.33 45.7 78.66 44 79 C42.515 78.505 42.515 78.505 41 78 C41 77.34 41 76.68 41 76 C42.32 76 43.64 76 45 76 C45 66.76 45 57.52 45 48 C43.35 48 41.7 48 40 48 C40 46.02 40 44.04 40 42 C36.04 42 32.08 42 28 42 C28 39.36 28 36.72 28 34 C15.13 34 2.26 34 -11 34 C-11 36.64 -11 39.28 -11 42 C-14.63 42 -18.26 42 -22 42 C-22 45.63 -22 49.26 -22 53 C-25.96 53 -29.92 53 -34 53 C-34 56.96 -34 60.92 -34 65 C-35.65 65 -37.3 65 -39 65 C-39 57.41 -39 49.82 -39 42 C-35.37 42 -31.74 42 -28 42 C-28 35.4 -28 28.8 -28 22 C-24.37 22 -20.74 22 -17 22 C-17 18.37 -17 14.74 -17 11 C-11.39 11 -5.78 11 0 11 C0 7.37 0 3.74 0 0 Z " fill="#F6E9CF" transform="translate(79,74)"/>
<path d="M0 0 C0.83963287 0.32342377 1.67926575 0.64684753 2.54434204 0.98007202 C6.28949813 2.08544458 9.39015574 2.27779111 13.29052734 2.31884766 C14.3452272 2.33391609 14.3452272 2.33391609 15.42123413 2.34928894 C17.72612757 2.37997493 20.03090564 2.39711497 22.3359375 2.4140625 C23.94162987 2.43278593 25.54731252 2.45236021 27.15298462 2.4727478 C31.3647487 2.52395101 35.57654464 2.56363969 39.78845215 2.60089111 C44.09212041 2.64100506 48.39565749 2.6920636 52.69921875 2.7421875 C61.1327227 2.83880683 69.56629188 2.92325608 78 3 C78 6.63 78 10.26 78 14 C80.36478516 13.98259766 80.36478516 13.98259766 82.77734375 13.96484375 C84.83072799 13.95546757 86.8841135 13.94636718 88.9375 13.9375 C90.49887695 13.92493164 90.49887695 13.92493164 92.09179688 13.91210938 C93.57583008 13.90727539 93.57583008 13.90727539 95.08984375 13.90234375 C96.00628662 13.89710693 96.92272949 13.89187012 97.86694336 13.88647461 C100 14 100 14 101 15 C101.14115161 17.67058851 101.04247107 20.32432238 101 23 C102.65 23 104.3 23 106 23 C106 20.03 106 17.06 106 14 C109.63 14 113.26 14 117 14 C117 10.37 117 6.74 117 3 C130.2 3 143.4 3 157 3 C157 6.63 157 10.26 157 14 C158.629375 13.979375 160.25875 13.95875 161.9375 13.9375 C163.62499341 13.91613932 165.31391034 13.92794489 167 14 C168 15 168 15 168.09765625 17.50390625 C168.06510417 20.3359375 168.03255208 23.16796875 168 26 C171.63 26 175.26 26 179 26 C179 36.23 179 46.46 179 57 C175.37 57 171.74 57 168 57 C168 60.63 168 64.26 168 68 C164.37 68 160.74 68 157 68 C157 71.63 157 75.26 157 79 C153.04 79 149.08 79 145 79 C145 71.74 145 64.48 145 57 C141.37 57 137.74 57 134 57 C134 53.37 134 49.74 134 46 C130.37 46 126.74 46 123 46 C123 42.04 123 38.08 123 34 C115.74 34 108.48 34 101 34 C101 31.36 101 28.72 101 26 C93.08 26 85.16 26 77 26 C77 22.37 77 18.74 77 15 C47.63 15 18.26 15 -12 15 C-12 18.63 -12 22.26 -12 26 C-19.92 26 -27.84 26 -36 26 C-36 28.64 -36 31.28 -36 34 C-43.26 34 -50.52 34 -58 34 C-58 37.96 -58 41.92 -58 46 C-61.63 46 -65.26 46 -69 46 C-69 49.63 -69 53.26 -69 57 C-72.63 57 -76.26 57 -80 57 C-80 64.26 -80 71.52 -80 79 C-83.96 79 -87.92 79 -92 79 C-92 75.37 -92 71.74 -92 68 C-95.63 68 -99.26 68 -103 68 C-103 64.37 -103 60.74 -103 57 C-106.63 57 -110.26 57 -114 57 C-114 46.77 -114 36.54 -114 26 C-110.37 26 -106.74 26 -103 26 C-103 22.04 -103 18.08 -103 14 C-99.37 14 -95.74 14 -92 14 C-92 10.37 -92 6.74 -92 3 C-78.8 3 -65.6 3 -52 3 C-52 6.63 -52 10.26 -52 14 C-48.37 14 -44.74 14 -41 14 C-41 16.97 -41 19.94 -41 23 C-39.35 23 -37.7 23 -36 23 C-36.020625 21.700625 -36.04125 20.40125 -36.0625 19.0625 C-36.08399454 17.70834367 -36.07148199 16.35243917 -36 15 C-35 14 -35 14 -32.86694336 13.88647461 C-31.95050049 13.89171143 -31.03405762 13.89694824 -30.08984375 13.90234375 C-29.10048828 13.90556641 -28.11113281 13.90878906 -27.09179688 13.91210938 C-26.05087891 13.92048828 -25.00996094 13.92886719 -23.9375 13.9375 C-22.37032227 13.94426758 -22.37032227 13.94426758 -20.77148438 13.95117188 C-18.18096546 13.96300073 -15.59047578 13.98093681 -13 14 C-13 10.37 -13 6.74 -13 3 C-9.04 3 -5.08 3 -1 3 C-0.67 2.01 -0.34 1.02 0 0 Z " fill="#24160D" transform="translate(120,17)"/>
<path d="M0 0 C5.61 0 11.22 0 17 0 C17 1.65 17 3.3 17 5 C18.65 5 20.3 5 22 5 C22 6.98 22 8.96 22 11 C25.96 11 29.92 11 34 11 C34 12.98 34 14.96 34 17 C37.3 17 40.6 17 44 17 C44.495 19.475 44.495 19.475 45 22 C48.63 22.33 52.26 22.66 56 23 C56 24.98 56 26.96 56 29 C59.63 29 63.26 29 67 29 C67 30.65 67 32.3 67 34 C97.03 34 127.06 34 158 34 C158 32.35 158 30.7 158 29 C161.63 29 165.26 29 169 29 C169 27.02 169 25.04 169 23 C172.96 23 176.92 23 181 23 C181 21.35 181 19.7 181 18 C184.21451269 16.39274365 187.43612536 16.94251815 191 17 C191 15.02 191 13.04 191 11 C194.96 11 198.92 11 203 11 C203 9.35 203 7.7 203 6 C204.65 6 206.3 6 208 6 C208 4.02 208 2.04 208 0 C213.61 0 219.22 0 225 0 C225 9.24 225 18.48 225 28 C217.74 28 210.48 28 203 28 C203 35.59 203 43.18 203 51 C195.74 51 188.48 51 181 51 C181 54.63 181 58.26 181 62 C168.30541594 62.15600521 155.61076424 62.30411236 142.91598034 62.4429636 C137.01709744 62.50771412 131.11826562 62.57488043 125.21948242 62.64819336 C98.11858876 62.98319762 71.0844361 63.12894706 44 62 C44 58.37 44 54.74 44 51 C36.74 51 29.48 51 22 51 C22 43.41 22 35.82 22 28 C14.74 28 7.48 28 0 28 C0 18.76 0 9.52 0 0 Z " fill="#8E6C4E" transform="translate(40,223)"/>
<path d="M0 0 C13.2 0 26.4 0 40 0 C40 2.64 40 5.28 40 8 C43.63 8 47.26 8 51 8 C51 11.63 51 15.26 51 19 C54.96 19 58.92 19 63 19 C63 22.96 63 26.92 63 31 C64.65 31 66.3 31 68 31 C68 47.5 68 64 68 81 C62.39 81 56.78 81 51 81 C51 79.35 51 77.7 51 76 C49.35 76 47.7 76 46 76 C46 74.02 46 72.04 46 70 C42.04 70 38.08 70 34 70 C34 67.36 34 64.72 34 62 C22.78 62 11.56 62 0 62 C0 58.04 0 54.08 0 50 C-3.63 50 -7.26 50 -11 50 C-11 47.36 -11 44.72 -11 42 C-12.65 42 -14.3 42 -16 42 C-16 32.76 -16 23.52 -16 14 C-14.35 14 -12.7 14 -11 14 C-11 12.02 -11 10.04 -11 8 C-7.37 8 -3.74 8 0 8 C0 5.36 0 2.72 0 0 Z " fill="#4F3A29" transform="translate(197,108)"/>
<path d="M0 0 C12.87 0 25.74 0 39 0 C39 2.64 39 5.28 39 8 C42.96 8 46.92 8 51 8 C51 9.98 51 11.96 51 14 C52.65 14 54.3 14 56 14 C56 23.24 56 32.48 56 42 C54.35 42 52.7 42 51 42 C51 44.64 51 47.28 51 50 C47.37 50 43.74 50 40 50 C40 53.63 40 57.26 40 61 C28.45 61 16.9 61 5 61 C5 63.97 5 66.94 5 70 C1.37 70 -2.26 70 -6 70 C-6 71.98 -6 73.96 -6 76 C-7.65 76 -9.3 76 -11 76 C-11 77.65 -11 79.3 -11 81 C-16.61 81 -22.22 81 -28 81 C-28 64.5 -28 48 -28 31 C-26.35 31 -24.7 31 -23 31 C-23 27.04 -23 23.08 -23 19 C-19.04 19 -15.08 19 -11 19 C-11 15.37 -11 11.74 -11 8 C-7.37 8 -3.74 8 0 8 C0 5.36 0 2.72 0 0 Z " fill="#4E3927" transform="translate(68,108)"/>
<path d="M0 0 C7.59 0 15.18 0 23 0 C23 3.63 23 7.26 23 11 C67.55 11 112.1 11 158 11 C158 7.37 158 3.74 158 0 C165.59 0 173.18 0 181 0 C181 3.63 181 7.26 181 11 C173.74 11 166.48 11 159 11 C159 14.63 159 18.26 159 22 C146.30541594 22.15600521 133.61076424 22.30411236 120.91598034 22.4429636 C115.01709744 22.50771412 109.11826562 22.57488043 103.21948242 22.64819336 C76.11858876 22.98319762 49.0844361 23.12894706 22 22 C22 18.37 22 14.74 22 11 C14.74 11 7.48 11 0 11 C0 7.37 0 3.74 0 0 Z " fill="#22140C" transform="translate(62,263)"/>
<path d="M0 0 C3.63 0 7.26 0 11 0 C11 24.09 11 48.18 11 73 C14.96 73 18.92 73 23 73 C23 80.59 23 88.18 23 96 C26.63 96 30.26 96 34 96 C34 108.87 34 121.74 34 135 C41.26 135 48.52 135 56 135 C56 138.96 56 142.92 56 147 C52.35411831 147.02682987 48.70843154 147.04675569 45.0625 147.0625 C44.02158203 147.07087891 42.98066406 147.07925781 41.90820312 147.08789062 C40.91884766 147.09111328 39.92949219 147.09433594 38.91015625 147.09765625 C37.99371338 147.10289307 37.07727051 147.10812988 36.13305664 147.11352539 C34 147 34 147 33 146 C32.92794489 144.31391034 32.91613932 142.62499341 32.9375 140.9375 C32.94652344 140.01839844 32.95554688 139.09929687 32.96484375 138.15234375 C32.97644531 137.44207031 32.98804688 136.73179687 33 136 C32.28972656 136.01160156 31.57945313 136.02320313 30.84765625 136.03515625 C29.92855469 136.04417969 29.00945313 136.05320313 28.0625 136.0625 C27.14597656 136.07410156 26.22945312 136.08570313 25.28515625 136.09765625 C23 136 23 136 22 135 C21.91134792 132.1156618 21.88478704 129.25537842 21.90234375 126.37109375 C21.9037587 125.50686295 21.90517365 124.64263214 21.90663147 123.75221252 C21.91224761 120.98060708 21.92480281 118.2090812 21.9375 115.4375 C21.94251292 113.5631522 21.94707619 111.68880315 21.95117188 109.81445312 C21.96222228 105.20960456 21.9794977 100.60481579 22 96 C18.37 96 14.74 96 11 96 C11 88.74 11 81.48 11 74 C7.37 74 3.74 74 0 74 C0 49.58 0 25.16 0 0 Z " fill="#24170D" transform="translate(6,116)"/>
<path d="M0 0 C1 1 1 1 1.09765625 3.50390625 C1.06510417 6.3359375 1.03255208 9.16796875 1 12 C4.63 12 8.26 12 12 12 C12 22.23 12 32.46 12 43 C4.74 43 -2.52 43 -10 43 C-10 35.41 -10 27.82 -10 20 C-11.98 20 -13.96 20 -16 20 C-16 17.36 -16 14.72 -16 12 C-27.22 12 -38.44 12 -50 12 C-50 8.37 -50 4.74 -50 1 C-44.647265 0.85571522 -39.2944828 0.71337876 -33.94165039 0.57275391 C-32.12523033 0.52477118 -30.30882363 0.47627996 -28.49243164 0.42724609 C-3.73863309 -0.24011904 -3.73863309 -0.24011904 0 0 Z " fill="#4B3726" transform="translate(287,31)"/>
<path d="M0 0 C12.87 0 25.74 0 39 0 C39 3.63 39 7.26 39 11 C27.78 11 16.56 11 5 11 C5 13.64 5 16.28 5 19 C3.02 19 1.04 19 -1 19 C-1 26.59 -1 34.18 -1 42 C-8.26 42 -15.52 42 -23 42 C-23 31.77 -23 21.54 -23 11 C-15.74 11 -8.48 11 -1 11 C-1 8.36 -1 5.72 -1 3 C-0.67 2.01 -0.34 1.02 0 0 Z " fill="#4B3727" transform="translate(29,32)"/>
<path d="M0 0 C0.91644287 0.00523682 1.83288574 0.01047363 2.77709961 0.01586914 C3.76645508 0.0190918 4.75581055 0.02231445 5.77514648 0.02563477 C6.81606445 0.03401367 7.85698242 0.04239258 8.92944336 0.05102539 C10.49662109 0.05779297 10.49662109 0.05779297 12.09545898 0.06469727 C14.68600996 0.07652627 17.27644895 0.0930085 19.86694336 0.11352539 C19.86694336 2.09352539 19.86694336 4.07352539 19.86694336 6.11352539 C12.60694336 6.11352539 5.34694336 6.11352539 -2.13305664 6.11352539 C-2.13305664 9.74352539 -2.13305664 13.37352539 -2.13305664 17.11352539 C-31.83305664 17.11352539 -61.53305664 17.11352539 -92.13305664 17.11352539 C-92.13305664 13.48352539 -92.13305664 9.85352539 -92.13305664 6.11352539 C-62.76305664 6.11352539 -33.39305664 6.11352539 -3.13305664 6.11352539 C-3.13305664 4.46352539 -3.13305664 2.81352539 -3.13305664 1.11352539 C-2.13305664 0.11352539 -2.13305664 0.11352539 0 0 Z " fill="#DFC7A6" transform="translate(200.133056640625,222.886474609375)"/>
<path d="M0 0 C3.96 0 7.92 0 12 0 C12 3.63 12 7.26 12 11 C34.11 11 56.22 11 79 11 C79 7.37 79 3.74 79 0 C82.96 0 86.92 0 91 0 C91.09765625 8.49609375 91.09765625 8.49609375 91 11 C90 12 90 12 87.49609375 12.09765625 C84.6640625 12.06510417 81.83203125 12.03255208 79 12 C79 15.63 79 19.26 79 23 C56.89 23 34.78 23 12 23 C12 19.37 12 15.74 12 12 C9.3084375 12.0309375 9.3084375 12.0309375 6.5625 12.0625 C4.70833878 12.0838122 2.85287502 12.07226502 1 12 C0 11 0 11 -0.09765625 8.49609375 C-0.06510417 5.6640625 -0.03255208 2.83203125 0 0 Z " fill="#281B10" transform="translate(107,178)"/>
<path d="M0 0 C3.63 0 7.26 0 11 0 C11 24.42 11 48.84 11 74 C7.37 74 3.74 74 0 74 C0 81.26 0 88.52 0 96 C-3.63 96 -7.26 96 -11 96 C-11 88.74 -11 81.48 -11 74 C-6.05 73.505 -6.05 73.505 -1 73 C-0.67 48.91 -0.34 24.82 0 0 Z " fill="#24160D" transform="translate(288,116)"/>
<path d="M0 0 C11.55 0 23.1 0 35 0 C35 1.65 35 3.3 35 5 C36.65 5 38.3 5 40 5 C40 9.95 40 14.9 40 20 C36.37 20 32.74 20 29 20 C29 22.64 29 25.28 29 28 C21.41 28 13.82 28 6 28 C6 25.36 6 22.72 6 20 C2.37 20 -1.26 20 -5 20 C-5 15.05 -5 10.1 -5 5 C-3.35 5 -1.7 5 0 5 C0 3.35 0 1.7 0 0 Z " fill="#281A10" transform="translate(135,150)"/>
<path d="M0 0 C14.85 0 29.7 0 45 0 C45 3.63 45 7.26 45 11 C41.37 11 37.74 11 34 11 C34 14.96 34 18.92 34 23 C26.41 23 18.82 23 11 23 C11 19.04 11 15.08 11 11 C7.37 11 3.74 11 0 11 C0 7.37 0 3.74 0 0 Z " fill="#271911" transform="translate(192,127)"/>
<path d="M0 0 C14.85 0 29.7 0 45 0 C45 3.63 45 7.26 45 11 C41.37 11 37.74 11 34 11 C34 14.96 34 18.92 34 23 C26.41 23 18.82 23 11 23 C11 19.04 11 15.08 11 11 C7.37 11 3.74 11 0 11 C0 7.37 0 3.74 0 0 Z " fill="#271911" transform="translate(68,127)"/>
<path d="M0 0 C3.96 0 7.92 0 12 0 C12.02464775 5.53588533 12.04283496 11.071739 12.05493164 16.60766602 C12.05997244 18.4924373 12.06680498 20.37720465 12.07543945 22.26196289 C12.08751617 24.96501636 12.09323068 27.66801831 12.09765625 30.37109375 C12.10281754 31.21900986 12.10797882 32.06692596 12.11329651 32.9405365 C12.11349195 34.96071068 12.06206211 36.98077934 12 39 C11 40 11 40 8.71484375 40.09765625 C7.34005859 40.08025391 7.34005859 40.08025391 5.9375 40.0625 C5.01839844 40.05347656 4.09929687 40.04445312 3.15234375 40.03515625 C2.44207031 40.02355469 1.73179687 40.01195312 1 40 C1.01160156 40.71027344 1.02320313 41.42054688 1.03515625 42.15234375 C1.04417969 43.07144531 1.05320312 43.99054688 1.0625 44.9375 C1.07410156 45.85402344 1.08570313 46.77054687 1.09765625 47.71484375 C1 50 1 50 0 51 C-1.63472882 51.08700342 -3.27314055 51.10701063 -4.91015625 51.09765625 C-5.89951172 51.09443359 -6.88886719 51.09121094 -7.90820312 51.08789062 C-8.94912109 51.07951172 -9.99003906 51.07113281 -11.0625 51.0625 C-12.10728516 51.05798828 -13.15207031 51.05347656 -14.22851562 51.04882812 C-16.81903454 51.03699927 -19.40952422 51.01906319 -22 51 C-22 47.04 -22 43.08 -22 39 C-14.74 39 -7.48 39 0 39 C0 26.13 0 13.26 0 0 Z " fill="#26180E" transform="translate(265,212)"/>
<path d="M0 0 C1.49192194 0.00138269 1.49192194 0.00138269 3.01398373 0.00279331 C4.15126919 0.00141865 5.28855465 0.00004398 6.46030331 -0.00137234 C7.71905773 0.00222294 8.97781216 0.00581821 10.27471066 0.00952244 C11.59158871 0.00937641 12.90846676 0.00923038 14.26525021 0.00907993 C17.88698982 0.00879196 21.5086966 0.01468859 25.13042855 0.02165389 C28.91142598 0.02788753 32.69242409 0.02849124 36.47342587 0.0296793 C43.63805004 0.03279258 50.80265904 0.04100594 57.96727651 0.05102879 C66.12191876 0.06219001 74.27656171 0.0677004 82.43120968 0.07272422 C99.21035107 0.08318855 115.98947717 0.10078794 132.76860714 0.12304783 C132.76860714 0.45304783 132.76860714 0.78304783 132.76860714 1.12304783 C125.50860714 1.12304783 118.24860714 1.12304783 110.76860714 1.12304783 C110.76860714 4.75304783 110.76860714 8.38304783 110.76860714 12.12304783 C110.43860714 12.12304783 110.10860714 12.12304783 109.76860714 12.12304783 C109.76860714 8.49304783 109.76860714 4.86304783 109.76860714 1.12304783 C80.39860714 1.12304783 51.02860714 1.12304783 20.76860714 1.12304783 C20.76860714 4.75304783 20.76860714 8.38304783 20.76860714 12.12304783 C16.97675331 12.17679064 13.18565416 12.2165972 9.39360714 12.24804783 C7.77325558 12.27318455 7.77325558 12.27318455 6.12016964 12.29882908 C5.08891964 12.30527439 4.05766964 12.3117197 2.99516964 12.31836033 C1.56551876 12.33407078 1.56551876 12.33407078 0.10698605 12.35009861 C-2.23139286 12.12304783 -2.23139286 12.12304783 -4.23139286 10.12304783 C-4.24311161 7.99414158 -4.24311161 7.99414158 -3.91889286 5.56054783 C-3.81963505 4.75488377 -3.72037724 3.9492197 -3.61811161 3.11914158 C-3.07536123 0.31767242 -2.88049838 0.15884207 0 0 Z " fill="#342418" transform="translate(87.2313928604126,30.876952171325684)"/>
<path d="M0 0 C14.52 0 29.04 0 44 0 C44 1.65 44 3.3 44 5 C41.69 5 39.38 5 37 5 C37 6.98 37 8.96 37 11 C26.11 11 15.22 11 4 11 C3 9 3 9 3.125 5.5 C3.063125 3.7675 3.063125 3.7675 3 2 C2.01 1.34 1.02 0.68 0 0 Z " fill="#F8EBD2" transform="translate(132,201)"/>
<path d="M0 0 C3.96 0 7.92 0 12 0 C12 3.63 12 7.26 12 11 C34.11 11 56.22 11 79 11 C79 7.37 79 3.74 79 0 C82.96 0 86.92 0 91 0 C91.09765625 8.49609375 91.09765625 8.49609375 91 11 C89.18003094 12.81996906 86.66110356 12.12640591 84.2386322 12.13552856 C83.41158279 12.13350433 82.58453339 12.1314801 81.73242188 12.12939453 C80.4325106 12.13202301 80.4325106 12.13202301 79.1063385 12.13470459 C76.22712227 12.13912425 73.34796691 12.13618472 70.46875 12.1328125 C68.47717273 12.13348551 66.48559554 12.1344555 64.49401855 12.13571167 C60.31420105 12.1371888 56.13440487 12.13503361 51.95458984 12.13037109 C46.58397474 12.1246738 41.2134096 12.12795273 35.84279633 12.13394356 C31.7285728 12.13754877 27.61436121 12.13641077 23.50013733 12.13381577 C21.51929214 12.13314639 19.53844588 12.1339753 17.55760193 12.13629532 C14.79423124 12.13882119 12.03094266 12.13498218 9.26757812 12.12939453 C8.44052872 12.13141876 7.61347931 12.13344299 6.7613678 12.13552856 C1.11426244 12.11426244 1.11426244 12.11426244 0 11 C-0.14310287 7.3308423 -0.04221662 3.67284559 0 0 Z " fill="#7F7362" transform="translate(107,178)"/>
<path d="M0 0 C3.63 0 7.26 0 11 0 C11 10.23 11 20.46 11 31 C7.37 31 3.74 31 0 31 C0 20.77 0 10.54 0 0 Z " fill="#20130C" transform="translate(6,43)"/>
<path d="M0 0 C3.63 0 7.26 0 11 0 C11 10.23 11 20.46 11 31 C7.37 31 3.74 31 0 31 C0 20.77 0 10.54 0 0 Z " fill="#20130C" transform="translate(288,43)"/>
<path d="M0 0 C0.33 0 0.66 0 1 0 C1 24.42 1 48.84 1 74 C-2.63 74 -6.26 74 -10 74 C-10 81.26 -10 88.52 -10 96 C-13.63 96 -17.26 96 -21 96 C-21 88.74 -21 81.48 -21 74 C-16.05 73.505 -16.05 73.505 -11 73 C-10.505 72.505 -10.505 72.505 -10 72 C-6.7 72 -3.4 72 0 72 C0 48.24 0 24.48 0 0 Z " fill="#1B0F09" transform="translate(298,116)"/>
<path d="M0 0 C1.65 0 3.3 0 5 0 C5.33 1.98 5.66 3.96 6 6 C16.89 6 27.78 6 39 6 C39 4.02 39 2.04 39 0 C40.98 0 42.96 0 45 0 C45 1.98 45 3.96 45 6 C43.35 6 41.7 6 40 6 C40 7.98 40 9.96 40 12 C28.45 12 16.9 12 5 12 C5 10.02 5 8.04 5 6 C3.35 6 1.7 6 0 6 C0 4.02 0 2.04 0 0 Z " fill="#DFCAAC" transform="translate(130,206)"/>
<path d="M0 0 C7.59 0 15.18 0 23 0 C23 3.63 23 7.26 23 11 C19.35411831 11.02682987 15.70843154 11.04675569 12.0625 11.0625 C10.50112305 11.07506836 10.50112305 11.07506836 8.90820312 11.08789062 C7.91884766 11.09111328 6.92949219 11.09433594 5.91015625 11.09765625 C4.99371338 11.10289307 4.07727051 11.10812988 3.13305664 11.11352539 C1 11 1 11 0 10 C0 6.7 0 3.4 0 0 Z " fill="#21140B" transform="translate(39,252)"/>
<path d="M0 0 C3.63 0 7.26 0 11 0 C11 6.6 11 13.2 11 20 C7.37 20 3.74 20 0 20 C0 13.4 0 6.8 0 0 Z " fill="#22150C" transform="translate(277,96)"/>
<path d="M0 0 C3.63 0 7.26 0 11 0 C11 6.6 11 13.2 11 20 C7.37 20 3.74 20 0 20 C0 13.4 0 6.8 0 0 Z " fill="#22150C" transform="translate(17,96)"/>
<path d="M0 0 C7.59 0 15.18 0 23 0 C23 2.64 23 5.28 23 8 C15.41 8 7.82 8 0 8 C0 5.36 0 2.72 0 0 Z " fill="#F9F8F4" transform="translate(79,150)"/>
<path d="M0 0 C7.59 0 15.18 0 23 0 C23 2.64 23 5.28 23 8 C15.41 8 7.82 8 0 8 C0 5.36 0 2.72 0 0 Z " fill="#F9F8F3" transform="translate(203,150)"/>
<path d="M0 0 C3.63 0 7.26 0 11 0 C11.09765625 8.49609375 11.09765625 8.49609375 11 11 C10.67 11.33 10.34 11.66 10 12 C6.7 12 3.4 12 0 12 C0 19.26 0 26.52 0 34 C-0.33 34 -0.66 34 -1 34 C-1.02953103 30.39585115 -1.04697407 26.79173424 -1.0625 23.1875 C-1.07087891 22.18267578 -1.07925781 21.17785156 -1.08789062 20.14257812 C-1.10969655 13.36093594 -0.70624899 6.745512 0 0 Z " fill="#674C33" transform="translate(277,178)"/>
<path d="M0 0 C7.92 0 15.84 0 24 0 C24 1.98 24 3.96 24 6 C16.08 6 8.16 6 0 6 C0 4.02 0 2.04 0 0 Z " fill="#D8C1A1" transform="translate(84,223)"/>
<path d="M0 0 C5.61 0 11.22 0 17 0 C17 3.96 17 7.92 17 12 C13.37 12 9.74 12 6 12 C6 8.37 6 4.74 6 1 C4.02 1 2.04 1 0 1 C0 0.67 0 0.34 0 0 Z " fill="#8C6C4E" transform="translate(248,189)"/>
<path d="M0 0 C5.61 0 11.22 0 17 0 C17 0.33 17 0.66 17 1 C15.02 1 13.04 1 11 1 C11 4.63 11 8.26 11 12 C7.37 12 3.74 12 0 12 C0 8.04 0 4.08 0 0 Z " fill="#8C6B4D" transform="translate(40,189)"/>
<path d="M0 0 C7.59 0 15.18 0 23 0 C23 1.98 23 3.96 23 6 C19.35418313 6.02887512 15.70839537 6.04675585 12.0625 6.0625 C10.50112305 6.07506836 10.50112305 6.07506836 8.90820312 6.08789062 C7.91884766 6.09111328 6.92949219 6.09433594 5.91015625 6.09765625 C4.53549194 6.10551147 4.53549194 6.10551147 3.13305664 6.11352539 C1 6 1 6 0 5 C0 3.35 0 1.7 0 0 Z " fill="#D8C5A8" transform="translate(141,178)"/>
<path d="M0 0 C7.71484375 -0.09765625 7.71484375 -0.09765625 10 0 C11 1 11 1 11.09765625 3.50390625 C11.06510417 6.3359375 11.03255208 9.16796875 11 12 C7.37 12 3.74 12 0 12 C0 8.04 0 4.08 0 0 Z " fill="#23160E" transform="translate(277,31)"/>
<path d="M0 0 C3.63 0 7.26 0 11 0 C11 3.63 11 7.26 11 11 C7.37 11 3.74 11 0 11 C0 7.37 0 3.74 0 0 Z " fill="#E0C8A9" transform="translate(226,212)"/>
<path d="M0 0 C3.63 0 7.26 0 11 0 C11 3.63 11 7.26 11 11 C7.37 11 3.74 11 0 11 C0 7.37 0 3.74 0 0 Z " fill="#DFC7A7" transform="translate(68,212)"/>
<path d="M0 0 C3.63 0 7.26 0 11 0 C11 3.63 11 7.26 11 11 C7.37 11 3.74 11 0 11 C0 7.37 0 3.74 0 0 Z " fill="#E0C9AA" transform="translate(237,201)"/>
<path d="M0 0 C3.63 0 7.26 0 11 0 C11 3.63 11 7.26 11 11 C7.37 11 3.74 11 0 11 C0 7.37 0 3.74 0 0 Z " fill="#E1C9AA" transform="translate(57,201)"/>
<path d="M0 0 C3.63 0 7.26 0 11 0 C11 3.63 11 7.26 11 11 C7.37 11 3.74 11 0 11 C0 7.37 0 3.74 0 0 Z " fill="#70543A" transform="translate(17,178)"/>
<path d="M0 0 C3.63 0 7.26 0 11 0 C11 3.63 11 7.26 11 11 C7.37 11 3.74 11 0 11 C0 7.37 0 3.74 0 0 Z " fill="#FDFCF8" transform="translate(226,139)"/>
<path d="M0 0 C3.63 0 7.26 0 11 0 C11 3.63 11 7.26 11 11 C7.37 11 3.74 11 0 11 C0 7.37 0 3.74 0 0 Z " fill="#FDFCF8" transform="translate(192,139)"/>
<path d="M0 0 C3.63 0 7.26 0 11 0 C11 3.63 11 7.26 11 11 C7.37 11 3.74 11 0 11 C0 7.37 0 3.74 0 0 Z " fill="#FDFBF8" transform="translate(102,139)"/>
<path d="M0 0 C3.63 0 7.26 0 11 0 C11 3.63 11 7.26 11 11 C7.37 11 3.74 11 0 11 C0 7.37 0 3.74 0 0 Z " fill="#FDFCF7" transform="translate(68,139)"/>
<path d="M0 0 C3.3 0 6.6 0 10 0 C10 3.3 10 6.6 10 10 C6.7 10 3.4 10 0 10 C0 6.7 0 3.4 0 0 Z " fill="#25170C" transform="translate(187,179)"/>
<path d="M0 0 C3.3 0 6.6 0 10 0 C10 3.3 10 6.6 10 10 C6.7 10 3.4 10 0 10 C0 6.7 0 3.4 0 0 Z " fill="#25170D" transform="translate(108,179)"/>
<path d="M0 0 C1.98 0 3.96 0 6 0 C6 1.98 6 3.96 6 6 C4.35 6 2.7 6 1 6 C1 7.98 1 9.96 1 12 C-10.55 12 -22.1 12 -34 12 C-34 11.67 -34 11.34 -34 11 C-22.78 11 -11.56 11 0 11 C0 7.37 0 3.74 0 0 Z " fill="#F1E0C3" transform="translate(169,206)"/>
<path d="M0 0 C3.63 0 7.26 0 11 0 C11 0.66 11 1.32 11 2 C9.35 2 7.7 2 6 2 C6 4.31 6 6.62 6 9 C4.33388095 9.042721 2.66617115 9.04063832 1 9 C0 8 0 8 -0.09765625 6.15234375 C-0.06510417 4.1015625 -0.03255208 2.05078125 0 0 Z " fill="#E2CFB5" transform="translate(164,170)"/>
<path d="M0 0 C3.63 0 7.26 0 11 0 C11 2.64 11 5.28 11 8 C9.35 8 7.7 8 6 8 C6 6.02 6 4.04 6 2 C4.02 2 2.04 2 0 2 C0 1.34 0 0.68 0 0 Z " fill="#DCC9AD" transform="translate(130,170)"/>
<path d="M0 0 C0.66 0.33 1.32 0.66 2 1 C2 4.3 2 7.6 2 11 C-4.93 11 -11.86 11 -19 11 C-19 10.67 -19 10.34 -19 10 C-12.65333314 9.41639845 -6.37625222 8.85508518 0 9 C0 6.03 0 3.06 0 0 Z " fill="#291504" transform="translate(105,32)"/>
<path d="M0 0 C1.47599073 0.04233482 2.95182482 0.09035829 4.42749023 0.14282227 C5.20293686 0.16643326 5.97838348 0.19004425 6.77732849 0.21437073 C9.26375833 0.29118741 11.74989067 0.37513351 14.23608398 0.45922852 C15.91770986 0.51243122 17.59935042 0.56517172 19.28100586 0.61743164 C23.41205504 0.74682672 27.54285101 0.88261792 31.67358398 1.02172852 C31.67358398 1.35172852 31.67358398 1.68172852 31.67358398 2.02172852 C20.45358398 2.02172852 9.23358398 2.02172852 -2.32641602 2.02172852 C-2.65641602 2.68172852 -2.98641602 3.34172852 -3.32641602 4.02172852 C-3.65641602 3.03172852 -3.98641602 2.04172852 -4.32641602 1.02172852 C-3.32641602 0.02172852 -3.32641602 0.02172852 0 0 Z " fill="#332317" transform="translate(31.326416015625,29.978271484375)"/>
<path d="M0 0 C1.65 0 3.3 0 5 0 C5 1.98 5 3.96 5 6 C3.35 6 1.7 6 0 6 C0 4.02 0 2.04 0 0 Z " fill="#DDCAAE" transform="translate(170,206)"/>
<path d="M0 0 C0.99 0 1.98 0 3 0 C3 2.64 3 5.28 3 8 C1.68 7.67 0.36 7.34 -1 7 C-0.67 4.69 -0.34 2.38 0 0 Z " fill="#DEC9A9" transform="translate(166,170)"/>
<path d="M0 0 C4.95 0 9.9 0 15 0 C15 0.33 15 0.66 15 1 C14.06027344 1.19916016 14.06027344 1.19916016 13.1015625 1.40234375 C11.87566406 1.66724609 11.87566406 1.66724609 10.625 1.9375 C9.81289062 2.11152344 9.00078125 2.28554688 8.1640625 2.46484375 C5.970537 2.92330693 5.970537 2.92330693 4 4 C4 3.01 4 2.02 4 1 C2.68 0.67 1.36 0.34 0 0 Z " fill="#2F231B" transform="translate(64,31)"/>
<path d="M0 0 C0.33 0 0.66 0 1 0 C1 3.63 1 7.26 1 11 C-1.76223278 8.23776722 -1.57856291 5.79293383 -2 2 C-1.34 2 -0.68 2 0 2 C0 1.34 0 0.68 0 0 Z " fill="#907358" transform="translate(50,190)"/>
<path d="M0 0 C3.63 0 7.26 0 11 0 C11 0.33 11 0.66 11 1 C10.06027344 1.19916016 10.06027344 1.19916016 9.1015625 1.40234375 C7.87566406 1.66724609 7.87566406 1.66724609 6.625 1.9375 C5.81289062 2.11152344 5.00078125 2.28554687 4.1640625 2.46484375 C1.970537 2.92330693 1.970537 2.92330693 0 4 C0 2.68 0 1.36 0 0 Z " fill="#F6E3C6" transform="translate(170,85)"/>
<path d="M0 0 C0.99 0 1.98 0 3 0 C3 2.64 3 5.28 3 8 C2.67 6.68 2.34 5.36 2 4 C1.34 4 0.68 4 0 4 C0 2.68 0 1.36 0 0 Z " fill="#5C4B37" transform="translate(116,150)"/>
</svg>
